<svg id="Layer_1" data-name="Layer 1" xmlns="http://www.w3.org/2000/svg" viewBox="0 0 338.4914 63.2177">
  <g>
    <g id="logoMark">
      <polygon id="logoMark_PathItem_" data-name="logoMark &lt;PathItem&gt;" points="53.164 47.159 38.249 47.159 34.848 56.317 21.547 59.943 32.29 31.003 44.245 31.003 40.647 40.68 55.564 40.68 59.17 30.963 72.411 27.072 61.563 56.317 49.765 56.317 53.164 47.159" style="fill: #fff"/>
      <path id="logoMark_CompoundPathItem_" data-name="logoMark &lt;CompoundPathItem&gt;" d="M115.1081,35.8214a6.3273,6.3273,0,0,0-.96-2.4595,5.2052,5.2052,0,0,0-1.9195-1.7191,6.0487,6.0487,0,0,0-2.8792-.64H85.2358a9.0337,9.0337,0,0,0-3.0394.54,12.2965,12.2965,0,0,0-2.8592,1.46,12.6583,12.6583,0,0,0-2.4385,2.2,10.0027,10.0027,0,0,0-1.7011,2.759L71.2405,48.7187a8.1926,8.1926,0,0,0-.06,2.8592,5.9421,5.9421,0,0,0,.92,2.4194A5.1535,5.1535,0,0,0,74,55.6764a6.0387,6.0387,0,0,0,2.8792.64h24.1939a9.4545,9.4545,0,0,0,3.06-.54,12.6318,12.6318,0,0,0,2.9775-1.48,12.1909,12.1909,0,0,0,2.48-2.199,7.95,7.95,0,0,0,1.5589-2.74l3.9592-10.6774A8.5567,8.5567,0,0,0,115.1081,35.8214Zm-12.8373,5.6592-1.8794,5.1584a14.8212,14.8212,0,0,1-1.02,1.4195,5.6333,5.6333,0,0,1-.7393.76,2.4093,2.4093,0,0,1-.6191.38c-.2.08-.4208.1733-.6592.2795H85.9952a1.8731,1.8731,0,0,1-1.6389-.7994,4.2889,4.2889,0,0,1-.2-2.9594L85.9952,40.72a5.27,5.27,0,0,1,1.3405-1.8193,5.4164,5.4164,0,0,1,1.7391-1.02h11.7173a1.4864,1.4864,0,0,1,1.24.78A4.3586,4.3586,0,0,1,102.2708,41.4806Z" style="fill: #fff"/>
      <path id="logoMark_PathItem_2" data-name="logoMark &lt;PathItem&gt;" d="M121.3053,37.6817l2.9193-6.7192h38.5119l-2.8793,6.5189c0,.1332-.0541.2-.16.2H146.5792l-6.9186,18.6348-13.6425,4.9767,8.7636-23.6115Z" style="fill: #fff"/>
      <path id="logoMark_PathItem_3" data-name="logoMark &lt;PathItem&gt;" d="M159.3784,56.3165l6.7963-18.3553a8.8345,8.8345,0,0,1,1.5809-2.6989,11.9617,11.9617,0,0,1,2.4384-2.2,13.2011,13.2011,0,0,1,2.9193-1.5,8.9138,8.9138,0,0,1,3.0595-.56h28.9526l-.08.2805-2.9994,6.5579H180.132a6.0087,6.0087,0,0,0-1.6389.86,4.9945,4.9945,0,0,0-1.3605,1.9395q-.5591,1.2006-.96,2.08t-.6792,1.58c-.1863.4669-.3546.8736-.5009,1.2192s-.2865.68-.4188,1a13.897,13.897,0,0,0-.4608,1.5q-.18.7408-.2585,1.02l-.04.2795c.026.2405.3045.4669.8395.68h25.4321l-.08.36-5.9167,5.9588Z" style="fill: #fff"/>
      <path id="logoMark_PathItem_4" data-name="logoMark &lt;PathItem&gt;" d="M231.4371,56.3165l6.8384-18.4755H223.7191a2.882,2.882,0,0,0-.96.4,6.5507,6.5507,0,0,0-.98.74,6.0886,6.0886,0,0,0-.7995.88,2.8988,2.8988,0,0,0-.4608.8595l-2.1178,5.7184a3.2222,3.2222,0,0,0,0,1.02,3.3184,3.3184,0,0,0,.3185,1.02,2.0893,2.0893,0,0,0,.6612.78,1.6393,1.6393,0,0,0,.98.3h12.3564l-6.3194,6.7582H211.4829a6.1484,6.1484,0,0,1-2.8191-.6,5.2833,5.2833,0,0,1-1.9195-1.6189,5.8277,5.8277,0,0,1-1-2.36,7.7436,7.7436,0,0,1-.02-2.779l4.0794-10.997a8.7873,8.7873,0,0,1,1.5788-2.6989,12.5408,12.5408,0,0,1,5.2576-3.7,8.654,8.654,0,0,1,2.9994-.56h32.9117l-9.397,25.3139Z" style="fill: #fff"/>
      <path id="logoMark_PathItem_5" data-name="logoMark &lt;PathItem&gt;" d="M248.14,61.2932l8.6112-23.332a8.5715,8.5715,0,0,1,1.619-2.66,13.0007,13.0007,0,0,1,2.5186-2.219,13.2018,13.2018,0,0,1,2.9994-1.52,9.052,9.052,0,0,1,3.02-.56H295.86l-.08.2805-7.9735,6.598-17.22-.04a3.698,3.698,0,0,0-.7994.3406,5.2159,5.2159,0,0,0-.94.6592,7.6756,7.6756,0,0,0-.86.88,2.4551,2.4551,0,0,0-.5209.96L261.668,56.3165Z" style="fill: #fff"/>
      <path id="logoMark_PathItem_6" data-name="logoMark &lt;PathItem&gt;" d="M331.2923,49.3579a8.029,8.029,0,0,1-1.5588,2.7,12.97,12.97,0,0,1-2.4585,2.219,11.8954,11.8954,0,0,1-2.9594,1.5,9.4545,9.4545,0,0,1-3.06.54H292.3436l.04-.2795,2.9594-6.5589H317.337q2.2781-.3591,2.799-1.8393a3.3657,3.3657,0,0,0,.12-.36,1.1446,1.1446,0,0,1,.08-.24v-.32H296.3028l3.2379-8.7579a8.8362,8.8362,0,0,1,1.5808-2.6989,11.9622,11.9622,0,0,1,2.4385-2.2,13.1989,13.1989,0,0,1,2.9193-1.5,8.9134,8.9134,0,0,1,3.0595-.56h28.9526l-.08.2805-2.7991,6.1582h-22.034q-2.72.801-2.9994,2.4394a1.6105,1.6105,0,0,0-.04.32v.16h24.0737Z" style="fill: #fff"/>
    </g>
    <path id="fullLogo" d="M11.5374,24.8245l-4.4527-7.803A40.0907,40.0907,0,0,0,0,39.4531,35.16,35.16,0,0,0,9.2021,63.2177l2.3579-.6345a29.1251,29.1251,0,0,1-5.4879-17.054A39.3653,39.3653,0,0,1,11.5374,24.8245Z" style="fill: #ea0029"/>
    <path id="fullLogo-2" data-name="fullLogo" d="M34.8331.1525A35.6065,35.6065,0,0,0,16.4556,7.22l9.881,5.7873a34.1479,34.1479,0,0,1,8.24-1.6986c11.21-.9516,22.056,5.3858,23.7624,16.6846L72.4,23.69C67.2526,7.0432,52.2815-1.249,34.8331.1525Z" style="fill: #ea0029"/>
    <polygon id="fullLogo-3" data-name="fullLogo" points="23.819 24.124 15.803 24.229 4.871 5.071 23.715 16.107 23.819 24.124" style="fill: #fff"/>
  </g>
</svg>
